# xmcd
#
# Track frame offsets:
#	150
#	13122
#	26140
#	38582
#	50647
#	62705
#	74580
#	85800
#	98100
#	110215
#	122567
#	134932
#	148507
#	159260
#	170617
#	183117
#	193480
#	205150
#	214425
#	223850
#
# Disc length: 3107 seconds
#
# Revision: 0
# Processed by: cddbd v1.5PL3 Copyright (c) Steve Scherf et al.
# Submitted via: dBpowerAMP V4.0
#
DISCID=3e0c2114
DTITLE=Various Artist - The Essential Earl Scruggs
DYEAR=1900
DGENRE=
TTITLE0=Heavy Traffic Ahead - Bill Monroe and His Blue Grass Boys
TTITLE1=It's Mighty Dark To Travel - Bill Monroe and His Blue Grass Boys
TTITLE2=Molly and Tenbrooks (The Race Horse Song) - Bill Monroe and His Blue Grass Boys
TTITLE3=Down The Road - Lester Flatt Earl Scruggs and The Foggy Mountain Boys
TTITLE4=Foggy Mountain Breakdown - Lester Flatt Earl Scruggs and The Foggy Mountain Boys
TTITLE5=Roll In My Sweet Baby's Arms - Lester Flatt Earl Scruggs and The Foggy Mountain Boys
TTITLE6=Old Salty Dog Blues - Lester Flatt Earl Scruggs and The Foggy Mountain Boys
TTITLE7=Pike County Breakdown - Lester Flatt Earl Scruggs and The Foggy Mountain Boys
TTITLE8=Come Back Darling - Lester Flatt Earl Scruggs and The Foggy Mountain Boys
TTITLE9=Don't Get Above Your Raising - Lester Flatt Earl Scruggs and The Foggy Mountain Boys
TTITLE10=Jimmie Brown, The Newsboy - Lester Flatt Earl Scruggs and The Foggy Mountain Boys
TTITLE11=Earl's Breakdown - Lester Flatt Earl Scruggs and The Foggy Mountain Boys
TTITLE12=Get In Line Brother - Lester Flatt Earl Scruggs and The Foggy Mountain Boys
TTITLE13=Dear Old Dixie - Lester Flatt Earl Scruggs and The Foggy Mountain Boys
TTITLE14=Flint Hill Special - Lester Flatt Earl Scruggs and The Foggy Mountain Boys
TTITLE15=Foggy Mountain Chimes - Lester Flatt Earl Scruggs and The Foggy Mountain Boys
TTITLE16=Till The End Of The World Rolls Round - Lester Flatt Earl Scruggs and The Foggy Mountain Boys
TTITLE17=Foggy Mountain Special - Lester Flatt Earl Scruggs and The Foggy Mountain Boys
TTITLE18=Randy Lynn Rag - Lester Flatt Earl Scruggs and The Foggy Mountain Boys
TTITLE19=Shuckin' The Corn - Lester Flatt Earl Scruggs and The Foggy Mountain Boys
EXTD=
EXTT0=
EXTT1=
EXTT2=
EXTT3=
EXTT4=
EXTT5=
EXTT6=
EXTT7=
EXTT8=
EXTT9=
EXTT10=
EXTT11=
EXTT12=
EXTT13=
EXTT14=
EXTT15=
EXTT16=
EXTT17=
EXTT18=
EXTT19=
PLAYORDER=
